<?xml version="1.0" standalone="no"?>
<!DOCTYPE svg PUBLIC "-//W3C//DTD SVG 20010904//EN"
 "http://www.w3.org/TR/2001/REC-SVG-20010904/DTD/svg10.dtd">
<svg version="1.0" xmlns="http://www.w3.org/2000/svg"
 width="100%" height="100%" viewBox="0 0 440.000000 330.000000"
 preserveAspectRatio="xMidYMid meet">

<g transform="translate(0.000000,330.000000) scale(0.100000,-0.100000)"
fill="#e8f0fa" stroke="none">
<path d="M704 2692 c-29 -20 -80 -138 -110 -256 l-34 -130 1 -610 c1 -336 4
-663 8 -726 l6 -115 130 -12 c72 -7 243 -24 382 -38 338 -34 332 -34 396 14
l52 39 335 -29 c1155 -104 1058 -97 1080 -75 32 32 49 6 56 -89 3 -44 6 -81 7
-81 5 -4 759 -65 761 -62 29 41 56 104 56 132 0 20 4 36 10 36 5 0 19 19 32
43 21 41 22 53 22 354 1 282 3 313 17 313 9 0 22 -6 28 -14 18 -22 46 -8 70
34 16 29 21 55 21 114 l0 76 -124 0 c-69 0 -127 4 -130 9 -3 4 -6 121 -7 260
l-2 251 -93 0 -94 0 0 90 0 90 74 0 c76 0 89 6 99 45 3 14 5 10 6 -11 1 -41
25 -62 52 -46 10 7 46 12 79 12 57 0 60 1 60 25 0 24 -3 25 -60 25 l-60 0 0
114 c0 131 -4 146 -35 146 -24 0 -35 -17 -35 -55 0 -31 -6 -33 -65 -26 -49 6
-50 6 -50 41 0 29 -4 36 -22 38 -20 3 -23 -1 -23 -35 l0 -38 -285 3 c-198 2
-285 0 -285 -7 0 -6 -9 -11 -20 -11 -11 0 -20 -4 -20 -10 0 -5 -8 -10 -18 -10
-10 0 -27 -6 -37 -14 -19 -14 -19 -15 -1 -35 11 -12 24 -21 31 -21 33 0 78
-37 119 -98 44 -64 46 -71 46 -136 0 -58 -2 -67 -16 -62 -9 3 -58 6 -109 6
l-94 0 -3 33 -3 32 -122 3 -123 3 0 32 c0 18 5 39 11 47 9 13 10 13 6 -1 -7
-22 8 -43 25 -36 11 4 15 25 15 81 0 68 -2 76 -18 76 -11 0 -19 -7 -19 -16 0
-11 -5 -14 -16 -10 -9 3 -65 6 -125 6 -101 0 -109 1 -109 19 0 11 -4 23 -10
26 -6 3 -10 17 -10 31 0 21 -5 24 -35 24 -19 0 -35 4 -35 10 0 9 39 22 148 50
35 9 42 15 42 35 0 13 -4 26 -9 29 -4 3 -46 -10 -92 -29 -49 -20 -101 -35
-126 -35 -38 0 -42 -2 -45 -27 -3 -24 -8 -28 -40 -31 -33 -3 -38 -7 -38 -28 0
-13 -4 -24 -10 -24 -5 0 -10 -11 -10 -25 0 -21 -5 -25 -30 -25 l-30 0 0 -103
0 -104 -157 -6 c-243 -10 -273 -9 -273 8 0 8 -6 15 -14 15 -16 0 -26 30 -26
77 0 32 0 32 57 35 53 3 58 5 77 37 44 75 27 283 -24 311 -10 6 -46 10 -79 10
-33 0 -63 5 -66 10 -7 12 -874 14 -891 2z m136 -27 c0 -3 -11 -27 -24 -53 -13
-27 -41 -110 -61 -186 l-37 -139 -5 -308 c-5 -260 -4 -309 8 -313 16 -6 444
-36 507 -36 l42 0 0 244 0 244 -24 4 c-13 3 -86 6 -163 7 -178 2 -313 11 -313
22 0 5 11 16 25 25 20 13 39 15 93 10 37 -4 157 -9 266 -12 109 -2 203 -7 208
-10 12 -8 -1 -44 -28 -77 -24 -28 -44 -85 -44 -124 0 -20 5 -23 40 -23 44 0
47 -5 24 -39 -14 -19 -14 -27 -4 -47 8 -13 17 -24 21 -24 4 0 5 -9 2 -20 -3
-11 -12 -20 -19 -20 -19 0 -18 -39 1 -46 22 -9 18 -31 -5 -37 -12 -3 -20 -14
-20 -27 0 -13 8 -24 20 -27 30 -8 24 -28 -12 -39 -30 -9 -313 4 -659 31 l-86
7 -7 314 -7 313 31 123 c17 70 46 154 67 196 l37 72 63 0 c35 0 63 -2 63 -5z
m550 -55 l-30 -60 -264 0 c-243 0 -265 -1 -270 -17 -3 -10 -19 -67 -37 -128
-18 -60 -35 -146 -39 -190 l-7 -80 -1 78 c-2 96 42 289 90 390 l32 67 278 0
278 0 -30 -60z m61 41 c-58 -58 -51 -280 9 -312 8 -4 46 -11 83 -14 l68 -7 -3
-41 -3 -42 -100 -22 c-55 -12 -108 -22 -117 -22 -17 -1 -18 14 -18 173 0 173
0 174 31 240 22 47 36 66 50 66 19 0 19 0 0 -19z m212 -23 c-24 -46 -25 -209
-1 -255 l16 -33 -59 0 c-50 0 -61 3 -74 23 -39 60 -39 214 0 274 13 20 24 23
75 23 l61 0 -18 -32z m87 -3 c23 -45 21 -222 -3 -258 -44 -67 -82 -5 -82 133
0 141 44 206 85 125z m-266 -12 c-18 -52 -18 -185 1 -229 11 -26 11 -34 2 -32
-39 13 -50 216 -14 271 24 37 27 34 11 -10z m25 -11 c-11 -33 -8 -185 5 -232
6 -22 5 -22 -11 5 -23 38 -26 206 -5 243 18 32 25 22 11 -16z m2280 -144 c-1
-88 -4 -131 -9 -113 -14 54 -9 255 6 255 2 0 3 -64 3 -142z m-2429 -98 l0
-181 -172 7 c-95 4 -175 8 -176 10 -2 1 2 18 9 37 12 33 14 34 55 29 38 -4 47
-1 74 26 26 26 30 38 30 82 0 44 -4 56 -29 81 -82 82 -195 -10 -155 -127 14
-41 13 -46 -6 -84 l-20 -40 -65 0 -65 0 0 163 c0 90 3 167 7 170 3 4 120 7
260 7 l253 0 0 -180z m2460 98 c0 -57 -3 -78 -10 -68 -15 24 -10 150 6 150 2
0 4 -37 4 -82z m-403 62 l83 0 0 -120 0 -120 -169 0 -169 0 -51 70 c-47 64
-51 74 -51 126 l0 57 137 -6 c75 -4 174 -7 220 -7z m-1097 -10 c0 -5 -9 -10
-20 -10 -11 0 -20 5 -20 10 0 6 9 10 20 10 11 0 20 -4 20 -10z m1284 2 c3 -5
-4 -25 -14 -45 -24 -45 -25 -55 -3 -79 23 -26 59 -23 79 8 16 24 16 26 -5 54
-11 16 -21 38 -21 50 0 16 6 20 35 20 l35 0 0 -90 0 -90 -75 0 -75 0 0 90 c0
82 2 90 19 90 11 0 22 -4 25 -8z m-574 -38 c0 -24 -4 -34 -12 -32 -24 8 -22
68 2 68 5 0 10 -16 10 -36z m724 -10 c-3 -63 -14 -68 -14 -6 0 29 4 52 8 52 4
0 7 -21 6 -46z m-774 10 c0 -17 -22 -14 -28 4 -2 7 3 12 12 12 9 0 16 -7 16
-16z m-590 -9 c0 -12 -18 -15 -100 -15 -82 0 -100 3 -100 15 0 12 18 15 100
15 82 0 100 -3 100 -15z m-1260 -25 c57 -57 23 -161 -52 -160 l-33 1 35 17
c59 29 67 104 14 138 -20 14 -29 15 -51 5 -23 -11 -25 -10 -13 3 18 23 76 20
100 -4z m2524 -7 c9 -22 -13 -45 -38 -41 -26 4 -33 38 -11 54 20 15 41 9 49
-13z m-2544 -36 c13 -24 13 -30 0 -54 -8 -14 -22 -28 -30 -31 -9 -3 -8 1 4 10
12 10 19 27 19 48 0 21 -7 38 -19 48 -12 9 -13 13 -4 10 8 -3 22 -17 30 -31z
m1298 21 c-3 -9 -38 -14 -116 -16 -95 -2 -112 0 -112 13 0 13 18 15 116 15 88
0 115 -3 112 -12z m-1323 -48 c0 -32 -2 -35 -30 -35 -24 0 -31 5 -33 23 -6 38
5 54 35 50 25 -3 28 -7 28 -38z m1625 30 c0 -5 -4 -10 -10 -10 -5 0 -10 5 -10
10 0 6 5 10 10 10 6 0 10 -4 10 -10z m-99 -52 c-4 -35 -6 -38 -9 -15 -3 26 3
57 10 57 2 0 1 -19 -1 -42z m-49 -10 c2 -36 7 -44 26 -46 20 -3 22 -9 22 -68
l0 -64 -161 0 c-157 0 -162 1 -191 25 -34 29 -82 33 -116 9 l-22 -15 0 100 0
101 219 0 220 0 3 -42z m25 -10 c-2 -13 -4 -5 -4 17 -1 22 1 32 4 23 2 -10 2
-28 0 -40z m58 20 c-1 -18 -6 -32 -11 -31 -20 4 -16 63 5 63 5 0 8 -15 6 -32z
m22 -15 c-3 -10 -5 -4 -5 12 0 17 2 24 5 18 2 -7 2 -21 0 -30z m43 7 c0 -5 -4
-10 -10 -10 -5 0 -10 5 -10 10 0 6 5 10 10 10 6 0 10 -4 10 -10z m-70 -110 c0
-33 -4 -60 -10 -60 -6 0 -10 27 -10 60 0 33 4 60 10 60 6 0 10 -27 10 -60z
m70 50 c0 -5 -4 -10 -10 -10 -5 0 -10 5 -10 10 0 6 5 10 10 10 6 0 10 -4 10
-10z m805 -24 c0 0 -1 -36 -3 -79 l-4 -77 -181 2 -182 3 2 80 c1 44 3 82 3 84
0 3 365 -10 365 -13z m-1895 -51 c0 -8 6 -15 14 -15 8 0 17 -7 20 -17 6 -14
25 -15 196 -9 167 6 190 5 190 -9 0 -13 -36 -15 -287 -14 -284 0 -390 7 -366
22 10 6 199 53 226 56 4 1 7 -6 7 -14z m1180 -15 c-20 -13 -140 -13 -140 0 0
6 32 10 78 10 53 0 72 -3 62 -10z m-558 -17 c25 -29 29 -53 13 -82 -23 -46
-67 -54 -103 -21 -26 25 -29 76 -5 102 21 23 75 24 95 1z m648 -3 c0 -17 -7
-20 -50 -20 -59 0 -65 14 -12 28 55 15 62 14 62 -8z m-120 -75 l0 -65 -45 0
-45 0 0 65 0 65 45 0 45 0 0 -65z m-660 30 c0 -20 -5 -25 -25 -25 -20 0 -25 5
-25 25 0 20 5 25 25 25 20 0 25 -5 25 -25z m490 -12 c0 -25 -1 -26 -52 -19
-29 3 -101 6 -160 6 -98 0 -108 2 -108 18 0 10 2 21 4 23 2 2 74 3 160 1 l156
-3 0 -26z m60 -178 c0 -118 -2 -215 -4 -215 -2 0 -11 -3 -20 -6 -14 -5 -16 17
-16 209 0 214 1 223 33 226 4 1 7 -96 7 -214z m-1542 179 l142 -6 0 -234 c0
-216 -1 -234 -17 -234 -10 0 -110 7 -223 15 -113 8 -207 15 -209 15 -13 0 11
102 28 119 38 38 -13 95 -55 61 -18 -16 -18 -54 0 -69 10 -9 11 -22 3 -61 -8
-43 -13 -50 -33 -50 l-24 0 0 228 0 227 122 -3 c68 -1 187 -5 266 -8z m830 10
c64 -5 92 -11 92 -20 0 -9 -26 -11 -112 -8 -62 2 -211 7 -330 10 -120 3 -218
10 -218 15 0 10 432 12 568 3z m1182 -16 c0 -20 -2 -21 -97 -15 -54 4 -131 7
-170 7 -58 0 -73 3 -73 15 0 13 26 15 170 15 167 0 170 0 170 -22z m600 -13
c0 -12 -17 -15 -97 -15 -88 1 -96 2 -79 15 28 21 176 21 176 0z m-2294 -27
c-8 -13 -19 -42 -26 -65 -11 -43 -11 -43 -56 -43 l-46 0 7 38 c4 20 14 49 23
65 14 23 23 27 64 27 48 0 48 0 34 -22z m397 12 l137 0 0 -40 0 -41 -67 5
c-38 3 -148 8 -245 12 l-178 6 0 35 0 35 108 -5 c59 -4 169 -6 245 -7z m302
-20 c36 -33 77 -36 112 -6 30 25 36 26 154 26 68 0 141 -3 162 -6 l37 -7 0
-185 0 -185 -167 8 c-93 4 -213 10 -268 14 l-100 6 -3 178 -2 177 27 0 c15 0
36 -9 48 -20z m1313 4 c207 -5 272 -10 272 -19 0 -7 -6 -15 -14 -18 -9 -4
-892 18 -913 22 -2 1 -3 8 -3 17 0 15 18 16 193 10 105 -3 315 -9 465 -12z
m-1398 -69 l0 -75 -30 0 -30 0 0 75 0 75 30 0 30 0 0 -75z m-594 28 c-11 -11
-19 6 -11 24 8 17 8 17 12 0 3 -10 2 -21 -1 -24z m1937 -12 c164 -5 301 -11
304 -15 4 -3 3 -9 -1 -13 -16 -16 -1016 2 -1016 18 0 5 22 9 49 9 28 0 53 5
56 10 4 7 59 8 158 5 84 -4 286 -10 450 -14z m-1550 -17 c116 -6 127 -8 127
-25 0 -16 -8 -19 -47 -19 -86 0 -496 20 -500 23 -2 2 0 12 3 22 7 18 -3 18
417 -1z m1888 -73 c-16 -16 -21 -34 -21 -69 0 -54 7 -67 27 -51 11 10 13 -8
13 -102 -1 -106 -2 -116 -25 -144 l-25 -30 0 212 c0 208 0 212 23 228 21 15
22 14 25 -4 2 -11 -6 -29 -17 -40z m-403 3 c244 -6 273 -8 270 -23 -4 -17 7
-17 -648 -2 -249 6 -265 7 -268 25 -4 18 4 18 185 12 103 -3 311 -9 461 -12z
m352 -200 c0 -193 -2 -215 -16 -210 -9 3 -22 6 -30 6 -12 0 -14 35 -14 210 l0
210 30 0 30 0 0 -216z m-2287 149 c-7 -2 -19 -2 -25 0 -7 3 -2 5 12 5 14 0 19
-2 13 -5z m607 -13 c31 -5 -75 -6 -240 -3 -162 3 -306 10 -320 14 -32 10 486
0 560 -11z m-1184 -58 c-17 -17 -36 -8 -36 18 0 25 22 32 38 12 10 -13 10 -19
-2 -30z m2464 -6 c200 -7 314 -15 312 -21 -1 -6 -28 -9 -60 -8 -31 1 -194 7
-362 13 -388 13 -490 20 -490 31 0 6 56 7 143 3 78 -3 284 -11 457 -18z
m-1887 -33 c-7 -2 -19 -2 -25 0 -7 3 -2 5 12 5 14 0 19 -2 13 -5z m367 -4
c153 -6 279 -16 285 -21 7 -7 -19 -8 -75 -4 -47 3 -177 9 -289 12 -112 4 -217
10 -235 14 l-31 8 35 1 c19 1 159 -4 310 -10z m970 -80 c0 -27 -3 -30 -27 -27
-22 2 -29 9 -31 31 -3 24 0 27 27 27 28 0 31 -3 31 -31z m-955 -4 c165 -8 334
-17 375 -20 41 -3 296 -16 565 -30 270 -13 519 -27 555 -29 36 -3 125 -8 198
-12 102 -5 132 -10 132 -20 0 -10 -14 -14 -46 -14 -48 0 -1686 85 -1809 94
-38 3 -141 8 -227 12 -158 7 -186 12 -174 33 5 8 29 10 69 6 34 -3 197 -12
362 -20z m1460 4 c187 -6 346 -12 353 -15 50 -16 -42 -17 -360 -6 -404 14
-468 19 -468 34 0 6 24 8 68 4 37 -3 220 -11 407 -17z m-2345 -74 c1027 -68
2044 -134 2130 -137 54 -3 55 -3 53 25 -1 23 2 27 24 27 54 0 579 -31 591 -35
6 -2 12 -20 12 -40 0 -33 2 -35 33 -35 l32 0 -3 -427 c-2 -235 -5 -429 -7
-432 -5 -4 -636 45 -691 54 l-31 5 -6 231 c-3 127 -8 234 -12 237 -3 3 -103
14 -223 24 -972 78 -1374 108 -1382 103 -6 -4 -10 -84 -10 -206 l0 -200 -47 6
c-27 4 -84 10 -128 15 l-80 8 70 -1 70 -2 3 78 c2 56 -1 78 -10 81 -7 3 -57 7
-110 10 l-98 6 0 -80 0 -80 33 -1 c17 0 27 -3 20 -5 -10 -5 -357 26 -485 42
l-48 7 0 368 0 369 38 0 c20 0 138 -7 262 -15z m3078 -35 c17 0 32 -4 32 -10
0 -6 -35 -10 -85 -10 -74 0 -86 -2 -95 -20 -6 -11 -20 -20 -32 -20 -12 0 -32
-10 -45 -22 l-23 -21 0 28 c0 18 11 40 28 58 27 29 28 29 107 23 44 -3 95 -6
113 -6z m-133 -272 l-35 -53 0 -252 c0 -147 4 -253 9 -253 5 0 20 17 33 38 20
33 23 34 26 15 4 -24 -23 -83 -38 -83 -6 0 -10 -17 -10 -37 0 -21 -8 -48 -18
-60 -16 -22 -17 -3 -14 394 l4 417 36 45 37 44 3 -81 c3 -79 2 -83 -33 -134z
m135 157 c0 -51 -10 -69 -25 -45 -3 6 -19 10 -36 10 -28 0 -29 2 -29 45 l0 45
45 0 45 0 0 -55z m-165 15 c-27 -28 -65 -41 -65 -22 0 15 34 40 60 45 14 2 27
5 29 6 3 0 -8 -12 -24 -29z m-2285 -400 l0 -109 -27 1 c-16 1 -36 -2 -45 -6
-17 -8 -18 1 -18 108 l0 116 45 0 45 0 0 -110z m767 -88 l521 -48 46 -42 c40
-37 43 -42 23 -42 -13 0 -288 22 -613 50 -324 27 -596 50 -604 50 -9 1 4 18
30 40 25 22 52 40 60 40 8 -1 250 -22 537 -48z m-1175 -49 l3 -48 78 -9 c53
-6 77 -13 77 -22 0 -14 -8 -14 -137 2 l-43 5 0 60 c0 70 18 80 22 12z m1108
-48 c371 -31 686 -58 699 -61 17 -4 21 -8 13 -16 -11 -11 -329 14 -1191 93
-118 10 -231 19 -253 19 -21 0 -38 4 -38 9 0 15 22 20 60 16 19 -2 339 -29
710 -60z m-730 -25 c11 -1 10 -4 -5 -16 -47 -37 -55 -37 -55 -3 0 28 3 31 23
25 12 -3 29 -6 37 -6z"/>
<path d="M1332 1918 c-23 -23 -8 -98 20 -98 6 0 4 8 -5 18 -10 10 -17 27 -17
37 0 10 7 27 17 37 18 20 4 25 -15 6z"/>
<path d="M855 2613 c-11 -21 -21 -41 -23 -45 -2 -5 77 -8 175 -8 l178 0 23 40
c12 21 22 41 22 44 0 4 -80 6 -178 6 l-178 0 -19 -37z m355 21 c0 -3 -8 -19
-17 -35 l-17 -29 -163 0 c-90 0 -163 2 -163 5 0 4 7 19 15 35 l16 30 164 0
c91 0 165 -3 165 -6z"/>
<path d="M884 2615 c-4 -9 -2 -21 4 -27 15 -15 44 -1 40 19 -4 23 -36 29 -44
8z"/>
<path d="M944 2615 c-4 -9 -2 -21 4 -27 15 -15 44 -1 40 19 -4 23 -36 29 -44
8z"/>
<path d="M1054 2615 c-4 -9 -2 -21 4 -27 15 -15 44 -1 40 19 -4 23 -36 29 -44
8z"/>
<path d="M1113 2614 c-3 -8 -1 -20 5 -26 16 -16 42 -2 42 22 0 24 -38 28 -47
4z"/>
<path d="M1567 2573 c-14 -13 -6 -33 13 -33 13 0 20 7 20 20 0 19 -20 27 -33
13z m23 -13 c0 -5 -4 -10 -10 -10 -5 0 -10 5 -10 10 0 6 5 10 10 10 6 0 10 -4
10 -10z"/>
<path d="M1700 2536 c-15 -46 -1 -101 25 -101 27 0 41 45 29 92 -12 51 -38 55
-54 9z"/>
<path d="M1266 2494 c-4 -14 -4 -34 -1 -43 3 -10 -4 -29 -15 -44 -24 -30 -26
-60 -4 -81 45 -45 101 28 58 75 -13 14 -14 26 -6 63 5 25 7 48 4 51 -13 13
-30 3 -36 -21z m19 -134 c0 -16 -6 -26 -18 -28 -19 -4 -32 20 -23 44 9 25 41
13 41 -16z"/>
<path d="M892 2408 c-19 -19 -14 -55 10 -72 19 -13 25 -14 43 -2 24 16 31 51
15 72 -15 17 -52 18 -68 2z m48 -32 c0 -18 -21 -35 -36 -29 -17 6 -18 50 -1
56 15 5 37 -11 37 -27z"/>
<path d="M3150 2435 c-19 -23 -8 -50 20 -50 19 0 26 6 28 24 5 35 -26 53 -48
26z m32 -20 c0 -5 -5 -11 -11 -13 -6 -2 -11 4 -11 13 0 9 5 15 11 13 6 -2 11
-8 11 -13z"/>
<path d="M2157 2162 c-33 -36 -13 -92 31 -92 35 0 52 17 52 51 0 52 -51 77
-83 41z m61 -4 c7 -7 12 -21 12 -33 0 -43 -50 -62 -70 -26 -14 27 -13 37 6 55
19 19 36 20 52 4z"/>
<path d="M2630 1970 c0 -11 5 -20 10 -20 6 0 10 9 10 20 0 11 -4 20 -10 20 -5
0 -10 -9 -10 -20z"/>
<path d="M810 2041 c0 -31 -5 -53 -15 -61 -34 -28 -13 -70 36 -70 27 0 38 49
14 66 -16 12 -17 20 -8 64 9 46 9 50 -8 50 -16 0 -19 -8 -19 -49z m17 -87 c8
-21 -13 -42 -28 -27 -13 13 -5 43 11 43 6 0 13 -7 17 -16z"/>
<path d="M930 2081 c0 -5 7 -26 16 -47 12 -29 13 -43 5 -56 -26 -42 4 -87 49
-73 33 10 36 46 7 71 -15 12 -29 35 -33 51 -12 56 -16 63 -30 63 -8 0 -14 -4
-14 -9z m64 -127 c7 -19 -1 -34 -19 -34 -18 0 -28 17 -21 35 7 20 32 19 40 -1z"/>
<path d="M1175 2077 c-2 -6 -6 -29 -9 -51 -3 -23 -13 -44 -26 -53 -36 -25 -19
-73 25 -73 41 0 58 39 30 70 -12 14 -12 22 0 62 12 40 12 47 -1 52 -8 3 -16 0
-19 -7z m3 -131 c6 -29 -15 -43 -35 -24 -14 14 -14 20 -3 33 16 19 34 15 38
-9z"/>
<path d="M1127 1832 c-33 -36 -13 -92 32 -92 51 0 80 60 45 94 -21 21 -57 20
-77 -2z m63 -43 c0 -33 -23 -48 -49 -32 -39 24 -11 94 30 73 12 -7 19 -21 19
-41z"/>
<path d="M2390 2060 c-100 -17 -161 -129 -126 -230 7 -20 6 -23 -5 -12 -7 6
-24 12 -38 12 -20 0 -35 14 -65 55 -22 30 -43 55 -47 55 -3 0 -12 -7 -19 -15
-11 -13 -5 -23 34 -65 28 -29 46 -59 46 -73 0 -30 18 -47 50 -47 31 0 50 17
50 43 0 16 6 14 40 -17 46 -41 74 -50 137 -43 85 9 135 66 141 160 3 52 0 67
-20 96 -44 65 -107 93 -178 81z m91 -70 l24 -19 -41 1 c-22 1 -46 -2 -52 -6
-6 -4 -24 0 -39 8 l-28 15 25 10 c40 16 86 13 111 -9z m-133 -76 c12 -4 22
-14 22 -24 0 -9 9 -29 20 -43 16 -20 18 -30 10 -51 -9 -26 -11 -26 -39 -12
-31 17 -61 70 -61 110 0 27 8 30 48 20z m192 -29 c0 -46 -42 -105 -75 -105
-12 0 8 45 26 58 9 6 20 26 24 42 8 37 25 40 25 5z m-313 -91 c8 -21 -13 -42
-28 -27 -13 13 -5 43 11 43 6 0 13 -7 17 -16z"/>
<path d="M3637 1904 c-8 -8 1 -24 14 -24 5 0 9 7 9 15 0 15 -12 20 -23 9z"/>
<path d="M3637 1564 c-8 -8 1 -24 14 -24 5 0 9 7 9 15 0 15 -12 20 -23 9z"/>
<path d="M690 962 l0 -80 88 -7 c48 -3 96 -7 107 -8 18 -2 20 5 23 81 l3 82
-53 0 c-29 1 -79 3 -110 7 l-58 5 0 -80z m40 9 l0 -49 80 -7 c53 -5 80 -11 77
-18 -4 -12 -49 -12 -139 -1 l-48 6 0 59 c0 46 3 59 15 59 11 0 15 -12 15 -49z"/>
<path d="M3260 691 l0 -89 53 -6 c28 -3 87 -8 130 -12 l77 -6 0 94 0 95 -67 6
c-38 4 -96 7 -130 7 l-63 0 0 -89z m50 14 c0 -38 4 -57 14 -61 7 -3 50 -8 95
-12 45 -4 81 -11 81 -17 -1 -10 -126 -10 -187 0 l-33 6 0 69 c0 56 3 70 15 70
12 0 15 -13 15 -55z"/>
</g>
</svg>
