<?xml version="1.0" standalone="no"?>
<!DOCTYPE svg PUBLIC "-//W3C//DTD SVG 20010904//EN"
 "http://www.w3.org/TR/2001/REC-SVG-20010904/DTD/svg10.dtd">
<svg version="1.0" xmlns="http://www.w3.org/2000/svg"
 width="100%" height="100%" viewBox="0 0 907.000000 275.000000"
 preserveAspectRatio="xMidYMid meet">

<g transform="translate(0.000000,275.000000) scale(0.100000,-0.100000)"
fill="#01528c" stroke="none">
<path d="M8586 2730 c15 -45 8 -88 -22 -134 -16 -25 -177 -221 -357 -436
l-328 -392 32 -51 c17 -29 98 -155 179 -282 349 -544 538 -843 552 -870 40
-78 27 -149 -34 -182 -30 -16 -67 -18 -377 -21 -314 -3 -392 1 -444 23 -29 12
202 -284 237 -303 28 -15 73 -17 431 -17 380 0 401 1 429 20 42 28 59 76 46
126 -14 49 -73 143 -704 1113 -43 65 -80 125 -83 132 -5 15 129 194 274 365
147 174 366 440 390 474 27 39 36 85 24 118 -6 15 -61 94 -122 175 -132 172
-134 175 -123 142z"/>
<path d="M40 2713 c-40 -15 -40 -10 -40 -742 0 -747 2 -792 49 -953 63 -218
216 -400 428 -509 163 -83 326 -114 563 -106 316 11 514 88 695 271 137 138
203 273 240 484 22 123 22 1508 1 1538 -14 18 -31 19 -293 22 -153 2 -292 1
-309 -3 -20 -3 -35 -14 -42 -31 -9 -18 -12 -206 -12 -679 0 -446 -4 -671 -11
-707 -37 -173 -164 -283 -324 -282 -138 1 -237 85 -298 249 -8 20 -13 254 -17
727 -4 552 -8 700 -18 710 -10 10 -81 13 -305 15 -161 1 -299 -1 -307 -4z"/>
<path d="M2070 2685 c5 -22 10 -170 11 -330 1 -159 3 -279 6 -265 2 14 18 134
35 267 l31 242 -26 38 c-15 21 -36 49 -47 63 l-19 25 9 -40z"/>
<path d="M2290 2714 c-31 -9 -42 -51 -75 -307 -30 -230 -82 -619 -210 -1582
-19 -143 -37 -276 -40 -296 -3 -22 1 -43 11 -57 15 -22 18 -22 318 -22 356 0
333 -8 347 117 5 43 22 193 39 333 26 219 53 460 76 683 3 32 8 56 11 54 2 -3
26 -103 53 -224 27 -120 67 -297 89 -393 22 -96 56 -245 76 -330 19 -85 37
-165 40 -178 3 -12 14 -31 25 -42 19 -19 34 -20 283 -20 203 0 267 3 281 13
18 13 99 346 237 975 41 184 59 233 59 157 0 -19 9 -115 20 -212 28 -252 77
-715 85 -798 8 -75 20 -115 38 -127 7 -4 147 -8 313 -8 287 0 302 1 319 20 14
16 16 29 11 67 -16 118 -100 742 -131 973 -19 140 -55 408 -80 595 -25 187
-53 392 -61 455 -11 87 -20 120 -35 135 -19 19 -35 20 -351 23 -238 2 -339 0
-359 -9 -32 -13 -31 -11 -79 -209 -16 -69 -70 -294 -119 -500 -49 -206 -102
-427 -116 -490 -15 -63 -31 -119 -35 -123 -4 -5 -13 15 -20 45 -21 94 -87 373
-175 743 -47 198 -93 391 -101 428 -29 120 1 112 -391 114 -186 0 -345 -1
-353 -3z"/>
<path d="M4585 2713 c-43 -10 -45 -24 -45 -305 0 -255 1 -269 20 -288 19 -19
33 -20 290 -20 l270 0 0 -808 c0 -771 1 -810 18 -825 16 -15 53 -17 313 -17
221 0 299 3 312 12 16 12 17 76 20 823 l2 810 271 3 c261 2 272 3 290 23 18
20 19 38 16 293 -3 221 -6 274 -18 286 -13 13 -125 15 -877 16 -474 1 -871 0
-882 -3z"/>
<path d="M6503 2708 c-12 -5 -24 -20 -27 -32 -3 -11 -6 -505 -6 -1096 0 -847
3 -1080 13 -1100 l13 -25 300 -3 c247 -2 303 0 319 12 19 13 20 31 25 288 l5
274 69 85 c38 46 83 99 100 116 l30 33 104 -178 c284 -481 365 -613 382 -622
20 -11 707 -14 734 -4 9 3 16 16 16 29 0 22 -23 60 -306 505 -83 129 -172 269
-198 310 -26 41 -96 150 -155 242 -59 92 -116 183 -126 202 l-18 34 359 430
c197 237 363 442 368 457 19 49 12 50 -357 53 -227 2 -355 0 -379 -8 -32 -9
-54 -33 -152 -163 -64 -84 -172 -226 -242 -317 -69 -91 -147 -193 -173 -227
-25 -35 -49 -63 -53 -63 -4 0 -8 169 -10 375 -2 290 -6 377 -16 387 -17 17
-585 23 -619 6z"/>
<path d="M747 2698 c4 -7 10 -326 14 -708 4 -553 8 -703 19 -733 27 -75 121
-156 183 -157 16 0 17 37 17 643 0 596 -1 645 -18 678 -18 35 -209 289 -218
289 -3 0 -2 -6 3 -12z"/>
<path d="M3120 2604 c16 -60 49 -199 75 -309 99 -420 133 -550 139 -535 3 8
20 78 39 155 37 157 39 117 -23 379 l-29 118 -103 136 c-57 75 -108 143 -114
151 -6 8 1 -34 16 -95z"/>
<path d="M7218 2443 l3 -268 22 26 c85 101 178 232 173 244 -4 12 -195 265
-199 265 -1 0 -1 -120 1 -267z"/>
<path d="M6350 2023 c-23 -8 -113 -12 -257 -12 l-223 -1 0 -767 c0 -871 5
-818 -80 -860 -43 -22 -53 -23 -335 -23 -215 1 -300 4 -327 14 -34 12 -36 12
-25 -3 81 -112 196 -257 219 -276 40 -33 77 -37 393 -33 304 3 318 6 359 61
21 28 21 34 22 805 l0 777 143 3 c103 2 143 6 147 15 2 7 3 80 2 162 l-3 150
-35 -12z"/>
<path d="M4590 1985 c0 -13 9 -86 20 -162 20 -139 76 -559 130 -968 16 -121
33 -247 38 -280 15 -110 -20 -183 -97 -205 -20 -5 -166 -10 -326 -10 -282 0
-292 1 -335 23 -65 33 -79 68 -96 244 -21 222 -44 435 -51 463 -3 17 -19 -37
-49 -165 -24 -104 -58 -252 -76 -328 -17 -76 -40 -151 -50 -168 -10 -17 -37
-39 -61 -49 -38 -18 -67 -20 -300 -20 -203 0 -265 3 -292 14 -19 8 -35 13 -35
10 0 -17 222 -292 245 -304 23 -12 80 -15 309 -15 364 0 356 -4 402 190 15 61
29 113 33 117 3 4 55 -58 114 -137 89 -117 115 -146 148 -159 33 -13 88 -16
327 -16 158 0 303 5 323 10 52 15 90 59 96 114 3 25 -2 94 -11 153 -9 59 -27
194 -41 298 -48 377 -128 963 -141 1043 l-5 32 111 0 110 0 0 150 0 150 -220
0 -220 0 0 -25z"/>
<path d="M8695 1636 c-153 -72 -194 -265 -83 -391 53 -60 108 -85 189 -85 81
0 133 23 185 83 144 163 30 416 -186 417 -37 0 -71 -8 -105 -24z m196 -57
c118 -60 139 -223 40 -312 -36 -32 -92 -57 -131 -57 -68 0 -160 64 -181 127
-19 58 -7 145 25 187 61 80 156 102 247 55z"/>
<path d="M8710 1415 l0 -125 30 0 c28 0 30 2 30 40 0 33 3 40 20 40 14 0 25
-12 36 -40 15 -36 20 -40 51 -40 19 0 33 3 31 8 -35 67 -39 84 -24 101 9 10
16 35 16 59 0 60 -32 82 -121 82 l-69 0 0 -125z m130 56 c13 -25 -11 -51 -46
-51 -21 0 -24 5 -24 35 0 32 2 35 30 35 19 0 33 -7 40 -19z"/>
<path d="M2791 1118 c-1 -9 -10 -92 -21 -185 -11 -92 -26 -230 -34 -306 -18
-169 -37 -216 -100 -246 -40 -20 -60 -21 -341 -21 -280 0 -301 1 -341 20 -76
37 -85 83 -58 305 l6 50 -29 -40 c-50 -68 -179 -181 -260 -228 -105 -61 -211
-102 -335 -129 -136 -29 -405 -32 -547 -5 -182 34 -377 129 -504 245 -29 26
-47 40 -41 32 174 -237 273 -345 386 -422 258 -175 665 -225 1028 -128 101 28
261 108 338 170 34 27 65 50 70 49 4 0 36 -39 72 -86 104 -138 70 -128 431
-131 287 -3 312 -1 353 16 61 27 83 78 96 217 6 60 13 111 15 113 2 3 -4 21
-14 41 -10 20 -30 90 -45 156 -104 455 -124 535 -125 513z"/>
<path d="M7272 1045 l-52 -64 0 -258 c0 -295 -3 -307 -83 -343 -38 -18 -68
-20 -335 -20 -232 0 -300 3 -327 14 l-34 15 57 -74 c31 -40 83 -108 116 -150
38 -51 71 -82 93 -92 28 -11 92 -13 343 -11 424 4 400 -18 400 367 l0 253 40
47 39 48 -97 166 c-53 92 -100 167 -103 167 -3 0 -29 -29 -57 -65z"/>
</g>
</svg>
