<?xml version="1.0" encoding="UTF-8"?>
<!DOCTYPE svg PUBLIC "-//W3C//DTD SVG 1.1//EN" "http://www.w3.org/Graphics/SVG/1.1/DTD/svg11.dtd">
<!-- Creator: CorelDRAW X6 -->
<svg xmlns="http://www.w3.org/2000/svg" xml:space="preserve" width="154.517mm" height="36.9394mm" version="1.1" style="shape-rendering:geometricPrecision; text-rendering:geometricPrecision; image-rendering:optimizeQuality; fill-rule:evenodd; clip-rule:evenodd"
viewBox="0 0 133181 31839"
 xmlns:xlink="http://www.w3.org/1999/xlink">
 <defs>
  <style type="text/css">
   <![CDATA[
    .fil0 {fill:#D01E43}
   ]]>
  </style>
 </defs>
 <g id="Слой_x0020_1">
  <metadata id="CorelCorpID_0Corel-Layer"/>
  <path class="fil0" d="M118537 0c1344,0 2440,1095 2440,2437 0,1341 -1097,2437 -2440,2437 -1345,0 -2441,-1095 -2441,-2437 0,-1343 1096,-2437 2441,-2437zm10251 6802c2708,2656 4393,6351 4393,10424 0,7890 -6314,14354 -14156,14613l0 -1951c6766,-258 12204,-5845 12204,-12662 0,-2891 -979,-5559 -2622,-7696l75 -203 60 -234 37 -242 10 -195 0 -1854zm-10740 25036c-7841,-258 -14156,-6722 -14156,-14612 0,-4074 1684,-7768 4393,-10423l0 1854 11 195 36 241 60 233 73 202c-1643,2137 -2621,4806 -2621,7697 0,6816 5438,12404 12203,12662l0 1950zm-7335 -25677l5413 0 1922 5 0 17070c0,265 -206,484 -459,484l-1034 -1c-254,0 -460,-217 -460,-483l0 -13702c-36,-231 -149,-403 -426,-448l-4957 0c-261,0 -475,-215 -475,-478l0 -1969c0,-263 214,-477 475,-478zm15647 0l-5413 0 -1922 5 0 17070c0,265 205,484 458,484l1034 -1c252,0 459,-217 459,-483l0 -13702c37,-231 148,-403 425,-448l4958 0c261,0 475,-215 475,-478l0 -1969c0,-263 -214,-477 -475,-478zm-120333 6928l0 8853 -3074 0 0 -8853 -2953 0 0 -2674 9129 0 0 2674 -3102 0zm7159 -154l0 2105 4918 0 0 2134 -4918 0 0 2246 5348 0 0 2522 -8422 0 0 -11527 8314 0 0 2520 -5240 0zm17624 -2520l-3181 5593 3430 5933 -3578 0 -2292 -4442 -2275 4442 -3611 0 3458 -5933 -3240 -5593 3594 0 2075 4223 2089 -4223 3532 0zm11132 0l0 11527 -3073 0 0 -4519 -4013 0 0 4519 -3074 0 0 -11527 3074 0 0 4334 4013 0 0 -4334 3073 0zm6806 11621c-853,0 -1596,-59 -2226,-177 -629,-118 -1178,-328 -1645,-632 -463,-303 -824,-736 -1081,-1294 -254,-559 -382,-1267 -382,-2126l0 -3258c0,-858 129,-1567 385,-2128 256,-565 617,-994 1080,-1296 464,-301 1013,-509 1643,-628 630,-119 1373,-177 2226,-177 855,0 1600,59 2231,177 633,118 1181,328 1644,628 464,302 826,732 1082,1296 254,560 381,1271 381,2129l0 3257c0,859 -127,1568 -381,2127 -254,558 -613,992 -1079,1294 -466,304 -1014,514 -1647,632 -630,117 -1375,177 -2230,177zm0 -2674c589,0 1029,-41 1324,-123 292,-79 507,-256 642,-523 136,-270 202,-684 202,-1248l0 -2598c0,-433 -38,-772 -115,-1018 -74,-248 -197,-433 -361,-557 -167,-122 -379,-204 -641,-243 -261,-40 -612,-59 -1053,-59 -581,0 -1017,41 -1307,120 -287,80 -496,251 -632,515 -136,260 -210,676 -225,1242l0 2596c15,569 89,988 222,1251 134,266 346,441 635,520 290,82 726,123 1307,123zm11885 -6274l0 8854 -3074 0 0 -8854 -2954 0 0 -2674 9129 0 0 2674 -3101 0zm8938 8949c-852,0 -1596,-59 -2226,-177 -630,-118 -1178,-328 -1645,-633 -463,-302 -824,-735 -1081,-1293 -253,-559 -382,-1267 -382,-2126l0 -3258c0,-858 128,-1567 385,-2128 256,-565 617,-994 1080,-1296 464,-301 1012,-509 1643,-628 630,-119 1373,-177 2226,-177 855,0 1601,59 2231,177 632,118 1180,328 1643,628 464,302 826,732 1082,1296 253,560 381,1271 381,2129l0 3257c0,859 -128,1568 -381,2127 -254,558 -613,992 -1079,1293 -466,305 -1014,515 -1647,633 -630,117 -1376,177 -2231,177zm0 -2674c589,0 1029,-41 1324,-123 293,-79 507,-256 643,-523 136,-270 202,-684 202,-1248l0 -2598c0,-433 -38,-772 -115,-1018 -75,-248 -198,-433 -362,-557 -167,-123 -379,-204 -641,-243 -261,-40 -611,-59 -1052,-59 -582,0 -1017,41 -1306,120 -287,80 -497,251 -633,515 -135,260 -210,676 -225,1242l0 2596c15,569 90,988 223,1251 134,266 345,441 635,520 290,82 725,123 1306,123zm9807 2580l-3074 0 0 -11528 5799 0c723,0 1335,81 1834,242 499,158 902,405 1209,738 307,333 533,768 675,1303 144,537 215,1183 215,1941 0,844 -56,1542 -171,2087 -115,545 -315,987 -597,1315 -282,330 -678,571 -1188,723 -509,151 -1171,228 -1980,228l-2722 -1 0 2952zm0 -5627l2105 0c418,0 720,-38 905,-111 181,-75 310,-226 379,-454 69,-227 103,-597 103,-1111 0,-416 -34,-730 -103,-948 -66,-216 -197,-372 -392,-464 -197,-93 -491,-138 -891,-138l-2105 -1 0 3227zm10926 5627l0 -8854 4810 0 0 -2674 -7884 0 0 11528 3074 0z"/>
 </g>
</svg>
